<?xml version="1.0" encoding="UTF-8" standalone="no"?>
<svg
   width="16"
   height="16"
   version="1.1"
   id="svg1443"
   sodipodi:docname="volume-medium.svg"
   inkscape:version="1.2.2 (b0a8486541, 2022-12-01)"
   xmlns:inkscape="http://www.inkscape.org/namespaces/inkscape"
   xmlns:sodipodi="http://sodipodi.sourceforge.net/DTD/sodipodi-0.dtd"
   xmlns="http://www.w3.org/2000/svg"
   xmlns:svg="http://www.w3.org/2000/svg">
  <defs
     id="defs1447" />
  <sodipodi:namedview
     id="namedview1445"
     pagecolor="#ffffff"
     bordercolor="#000000"
     borderopacity="0.25"
     inkscape:showpageshadow="2"
     inkscape:pageopacity="0.0"
     inkscape:pagecheckerboard="0"
     inkscape:deskcolor="#d1d1d1"
     showgrid="false"
     inkscape:zoom="43.25"
     inkscape:cx="8"
     inkscape:cy="8"
     inkscape:window-width="1778"
     inkscape:window-height="898"
     inkscape:window-x="50"
     inkscape:window-y="90"
     inkscape:window-maximized="1"
     inkscape:current-layer="svg1443" />
  <path
     d="m10 5v6c1.1009-0.59686 1.7876-1.7477 1.79-3 0.001973-1.2535-0.68593-2.4064-1.79-3z"
     fill="#555555"
     id="path1437"
     style="fill:#c49ec4;fill-opacity:1" />
  <path
     d="m8 1-4 4h-3v6h3l4 4v-11.172zm-2 4.8281v4.3418l-1-0.99805-0.16992-0.17188h-1.8301v-2h1.8301l0.16992-0.17188z"
     fill="#555555"
     style="fill:#c49ec4;fill-opacity:1"
     id="path1439" />
  <path
     d="M10 1v1.5c2.32.74 4 2.93 4 5.5s-1.68 4.76-4 5.5V15c3.15-.78 5.5-3.6 5.5-7S13.15 1.78 10 1z"
     fill="#555555"
     opacity=".3"
     id="path1441"
     style="fill:#c49ec4;fill-opacity:1" />
  <rect
     style="fill:#c49ec4"
     id="rect1088"
     width="4.4608121"
     height="5.3343201"
     x="1.6791639"
     y="5.3242145" />
</svg>
