<?xml version="1.0" encoding="UTF-8" standalone="no"?>
<svg
   width="16"
   height="16"
   version="1.1"
   id="svg52"
   sodipodi:docname="volume-high.svg"
   inkscape:version="1.2.2 (b0a8486541, 2022-12-01)"
   xmlns:inkscape="http://www.inkscape.org/namespaces/inkscape"
   xmlns:sodipodi="http://sodipodi.sourceforge.net/DTD/sodipodi-0.dtd"
   xmlns="http://www.w3.org/2000/svg"
   xmlns:svg="http://www.w3.org/2000/svg">
  <defs
     id="defs56" />
  <sodipodi:namedview
     id="namedview54"
     pagecolor="#ffffff"
     bordercolor="#000000"
     borderopacity="0.25"
     inkscape:showpageshadow="2"
     inkscape:pageopacity="0.0"
     inkscape:pagecheckerboard="0"
     inkscape:deskcolor="#d1d1d1"
     showgrid="false"
     inkscape:zoom="27.375"
     inkscape:cx="2.0821918"
     inkscape:cy="5.369863"
     inkscape:window-width="1778"
     inkscape:window-height="898"
     inkscape:window-x="50"
     inkscape:window-y="90"
     inkscape:window-maximized="1"
     inkscape:current-layer="svg52" />
  <path
     d="m10 1v1.5c2.32 0.74 4 2.93 4 5.5s-1.68 4.76-4 5.5v1.5c3.15-0.78 5.5-3.6 5.5-7s-2.35-6.22-5.5-7zm0 4v6c1.1008-0.5968 1.7872-1.7478 1.789-3 0-1.3-0.719-2.42-1.789-3z"
     fill="#555555"
     id="path48"
     style="fill:#c49ec4;fill-opacity:1" />
  <path
     d="m8 1-4 4h-3v2 2 2h3l4 4v-11.172-2.8281zm-2 4.8281v4.3418l-1-0.99805-0.16992-0.17188h-0.0019531-1.8281v-2h1.8281 0.0019531l0.16992-0.17188 1-1z"
     fill="#555555"
     style="fill:#c49ec4;fill-opacity:1"
     id="path50" />
  <path
     style="fill:#c49ec4;stroke-width:0.0365297;fill-opacity:1"
     d="M 6.0091324,12.968037 4.0367834,10.995434 H 2.5298072 1.022831 V 8 5.0045662 H 2.5295558 4.0362806 L 6.0181403,3.0229567 8,1.0413472 v 6.949646 c 0,3.8223058 -0.00417,6.9496458 -0.00926,6.9496458 -0.00509,0 -0.8968164,-0.887671 -1.9816076,-1.972602 z M 6.0273973,8 c 0,-1.2054795 -0.012521,-2.1917808 -0.027825,-2.1917808 -0.015304,0 -0.2904537,0.2630137 -0.611444,0.5844749 L 4.8045092,6.9771689 H 3.8999716 2.9954338 V 8 9.022831 h 0.9045378 0.9045376 l 0.5836187,0.5844749 c 0.3209903,0.3214612 0.5961399,0.5844751 0.611444,0.5844751 0.015304,0 0.027825,-0.9863016 0.027825,-2.191781 z"
     id="path909" />
  <rect
     style="fill:#c49ec4"
     id="rect989"
     width="4.5087395"
     height="4.7595091"
     x="2.099654"
     y="5.596118"
     ry="0" />
</svg>
